<?xml version="1.0" encoding="UTF-8"?>
<svg id="Layer_4" xmlns="http://www.w3.org/2000/svg" version="1.1" xmlns:xlink="http://www.w3.org/1999/xlink" viewBox="0 0 1200 1200">
  <!-- Generator: Adobe Illustrator 29.8.4, SVG Export Plug-In . SVG Version: 2.1.1 Build 6)  -->
  <defs>
    <linearGradient id="linear-gradient" x1="630.19" y1="433.95" x2="630.19" y2="86.81" gradientUnits="userSpaceOnUse">
      <stop offset="0" stop-color="#fff"/>
      <stop offset="1" stop-color="#000" stop-opacity="0"/>
    </linearGradient>
    <linearGradient id="linear-gradient1" x1="624.82" x2="624.82" y2="86.81" xlink:href="#linear-gradient"/>
    <linearGradient id="linear-gradient2" x1="622.14" x2="622.14" y2="86.81" xlink:href="#linear-gradient"/>
    <linearGradient id="linear-gradient3" x1="635.55" x2="635.55" y2="86.81" xlink:href="#linear-gradient"/>
    <linearGradient id="linear-gradient4" x1="632.87" x2="632.87" y2="86.81" xlink:href="#linear-gradient"/>
  </defs>
  <g>
    <path d="M619.57,482.24h-1.34c0,.21,0,.43.01.64.44-.22.87-.44,1.33-.64Z" fill="#fff"/>
    <path d="M661.86,809.9c-1.7-.02-3.4-.09-5.09-.24-2.39-.17-4.73-.66-7.07-1.09l-3.44-.92c-1.16-.28-2.24-.77-3.36-1.14-4.4-1.69-8.63-3.83-12.36-6.67-3.72-2.84-7.09-6.12-9.94-9.85-5.57-7.57-9.35-16.57-11.05-26.2-.39-2.42-.89-4.8-1.04-7.28l-.35-3.68c-.1-1.23-.07-2.48-.12-3.72l-.09-3.73c.04-1.2.15-2.35.21-3.53.03-2.31.57-4.77.88-7.17,1.67-9.71,4.84-19.74,7.88-29.84,3.1-10.12,6.21-20.4,8.96-30.82,2.83-10.4,5.05-21.03,7.01-31.7.8-5.37,1.82-10.71,2.36-16.13l.95-8.1.63-8.14c.51-5.42.61-10.86.78-16.3.23-5.49.15-10.73.19-16.09,0-10.67-.14-21.32-.29-31.93-.07-4.3-.09-8.59-.14-12.88-2.29.63-4.68,1-7.17,1-3.9,0-7.59-.85-10.93-2.34.15,4.88.26,9.77.43,14.64.34,10.59.67,21.14.86,31.67.06,5.24.23,10.6.1,15.71-.07,5.16-.06,10.32-.46,15.47l-.45,7.73-.77,7.71c-.41,5.15-1.3,10.25-1.96,15.37-1.69,10.21-3.61,20.39-6.17,30.5-2.48,10.13-5.32,20.21-8.25,30.41l-2.18,7.7-2.1,7.82-1.92,7.99c-.51,2.76-1.13,5.45-1.54,8.27-.33,2.86-.86,5.62-.89,8.62-.06,1.47-.15,2.96-.16,4.41l.17,4.22c.07,1.41.08,2.81.22,4.22l.47,4.23c.23,2.82.85,5.62,1.36,8.43,2.19,11.2,6.92,22.23,14.12,31.58,3.67,4.63,8.01,8.74,12.79,12.23,4.8,3.49,10.15,6.11,15.67,8.1,1.4.44,2.76,1.01,4.19,1.34l4.26,1.06c2.88.5,5.75,1.02,8.66,1.18,4.38.31,8.77.28,13.12-.18-2.39-3.97-4.7-7.93-6.98-11.9Z" fill="#fff"/>
  </g>
  <path d="M630.19,539.78c-18.13,0-32.88-14.75-32.88-32.88s14.75-32.89,32.88-32.89,32.88,14.75,32.88,32.89-14.75,32.88-32.88,32.88ZM630.19,486.09c-11.48,0-20.81,9.34-20.81,20.81s9.34,20.81,20.81,20.81,20.81-9.34,20.81-20.81-9.34-20.81-20.81-20.81Z" fill="#fff"/>
  <path d="M650.33,543.58c0,1.3-.76,2.48-2,3.33-1.22.87-2.91,1.39-4.78,1.39h-26.75c-3.73,0-6.76-2.13-6.76-4.72,0-1.3.76-2.48,1.98-3.33,1.22-.85,2.91-1.38,4.78-1.38h26.75c3.73,0,6.78,2.12,6.78,4.71Z" fill="#fff"/>
  <path d="M650.33,543.58c0,1.3-.76,2.48-2,3.33-1.22.87-2.91,1.39-4.78,1.39h-26.75c-3.73,0-6.76-2.13-6.76-4.72h40.29Z" fill="#fff"/>
  <path d="M650.33,553.02c0,1.3-.76,2.48-2,3.33-1.22.87-2.91,1.39-4.78,1.39h-26.75c-3.73,0-6.76-2.13-6.76-4.72,0-1.3.76-2.48,1.98-3.33,1.22-.85,2.91-1.38,4.78-1.38h26.75c3.73,0,6.78,2.12,6.78,4.71Z" fill="#fff"/>
  <path d="M650.33,553.02c0,1.3-.76,2.48-2,3.33-1.22.87-2.91,1.39-4.78,1.39h-26.75c-3.73,0-6.76-2.13-6.76-4.72h40.29Z" fill="#fff"/>
  <path d="M650.33,562.46c0,1.3-.76,2.48-2,3.33-1.22.87-2.91,1.39-4.78,1.39h-26.75c-3.73,0-6.76-2.13-6.76-4.72,0-1.3.76-2.48,1.98-3.33,1.22-.85,2.91-1.38,4.78-1.38h26.75c3.73,0,6.78,2.12,6.78,4.71Z" fill="#fff"/>
  <path d="M650.33,562.46c0,1.3-.76,2.48-2,3.33-1.22.87-2.91,1.39-4.78,1.39h-26.75c-3.73,0-6.76-2.13-6.76-4.72h40.29Z" fill="#fff"/>
  <path d="M650.33,571.89c0,1.3-.76,2.48-2,3.33-1.22.87-2.91,1.39-4.78,1.39h-26.75c-3.73,0-6.76-2.13-6.76-4.72,0-1.3.76-2.48,1.98-3.33,1.22-.85,2.91-1.38,4.78-1.38h26.75c3.73,0,6.78,2.12,6.78,4.71Z" fill="#fff"/>
  <path d="M650.33,571.89c0,1.3-.76,2.48-2,3.33-1.22.87-2.91,1.39-4.78,1.39h-26.75c-3.73,0-6.76-2.13-6.76-4.72h40.29Z" fill="#fff"/>
  <path d="M650.33,581.33c0,1.3-.76,2.48-2,3.33-1.22.87-2.91,1.39-4.78,1.39h-26.75c-3.73,0-6.76-2.13-6.76-4.72,0-1.3.76-2.48,1.98-3.33,1.22-.85,2.91-1.38,4.78-1.38h26.75c3.73,0,6.78,2.12,6.78,4.71Z" fill="#fff"/>
  <path d="M650.33,581.33c0,1.3-.76,2.48-2,3.33-1.22.87-2.91,1.39-4.78,1.39h-26.75c-3.73,0-6.76-2.13-6.76-4.72h40.29Z" fill="#fff"/>
  <g>
    <rect x="624.15" y="19.55" width="12.07" height="447.12" fill="url(#linear-gradient)"/>
    <path d="M624.83,499.98c-1.48,0-2.82-.76-3.79-2-.98-1.22-1.59-2.91-1.59-4.78v-26.75c0-3.73,2.42-6.76,5.37-6.76,1.48,0,2.82.76,3.79,1.98.97,1.22,1.57,2.91,1.57,4.78v26.75c0,3.73-2.41,6.78-5.36,6.78Z" fill="url(#linear-gradient1)"/>
    <path d="M624.83,499.98c-1.48,0-2.82-.76-3.79-2-.98-1.22-1.59-2.91-1.59-4.78v-26.75c0-3.73,2.42-6.76,5.37-6.76v40.29Z" fill="url(#linear-gradient2)"/>
    <path d="M635.56,499.98c-1.48,0-2.82-.76-3.79-2-.98-1.22-1.59-2.91-1.59-4.78v-26.75c0-3.73,2.42-6.76,5.37-6.76,1.48,0,2.82.76,3.79,1.98.97,1.22,1.57,2.91,1.57,4.78v26.75c0,3.73-2.41,6.78-5.36,6.78Z" fill="url(#linear-gradient3)"/>
    <path d="M635.56,499.98c-1.48,0-2.82-.76-3.79-2-.98-1.22-1.59-2.91-1.59-4.78v-26.75c0-3.73,2.42-6.76,5.37-6.76v40.29Z" fill="url(#linear-gradient4)"/>
  </g>
  <g>
    <g>
      <path d="M779.82,970.83l-99.05-150.11-13.28-20.12c-.67-1.01-2.09-1.4-3.18-.88l-21.73,10.45-162.04,77.99c-1.09.52-1.03,1.21.14,1.53l298.23,82.38c1.17.32,1.58-.23.91-1.24Z" fill="#efa617"/>
      <path d="M784.4,967.84l-112.33-170.22c-1.06-1.59-2.67-2.76-4.56-3.28-1.89-.52-3.9-.36-5.62.47l-17.89,8.61-5.12,2.46-5.07,2.45-126.69,60.98-20.07,9.65-6.55,3.18-2.37,1.13c-3.12,1.48-4.03,4.2-3.84,6.22.05.59.2,1.22.5,1.83.67,1.53,2.05,2.98,4.44,3.64l298.23,82.38c3.34.92,5.84-.5,7.04-2.16,1.2-1.64,1.81-4.44-.1-7.34ZM664.35,805.78l104.1,157.74-274.38-75.79,17.91-8.62s.03-.02,0-.02l21.71-10.45,130.65-62.86Z" fill="#ffc630"/>
    </g>
    <path d="M494.07,887.73l-5.09,3,106.84,163.12,176.16-85.5-3.53-4.83s-64.33-20.55-68.04-21.57c-3.71-1.02-28.09-7.76-37.88-12.12-9.79-4.37-20.98-13.11-36.74-17.46-15.75-4.35-20.34-5.62-34.73-9.59-14.39-3.97-27.36-7.56-30.45-8.41-3.09-.85-22.24-6.14-22.24-6.14l-44.31-.48Z" fill="#efa617"/>
    <rect x="524.34" y="785.97" width="211.37" height="272.02" transform="translate(-426.42 1283.79) rotate(-74.56)" fill="#f7f7f7"/>
    <g>
      <path d="M778.63,971.19c1.08-.52,1.7-.01,1.38,1.15l-55.45,200.76c-.32,1.16-1.21,1.36-1.99.44l-103.7-122.45c-.78-.92-.53-2.09.55-2.62l159.21-77.28Z" fill="#ffc630"/>
      <path d="M721.88,1179.34c-1.32-.37-2.52-1.15-3.48-2.28l-103.69-122.45c-1.47-1.74-2.05-3.96-1.6-6.11.45-2.15,1.89-3.95,3.93-4.94l159.2-77.28c2.02-.98,3.74-.83,4.82-.53,3.4.94,5.21,4.39,4.2,8.04l-55.45,200.76c-1.02,3.7-4.43,5.76-7.93,4.79ZM626.16,1051.25l95.31,112.54,50.66-183.4-145.96,70.85Z" fill="#ffc630"/>
    </g>
    <g>
      <path d="M722.57,1173.54c.78.92.47,1.4-.69,1.08l-296.2-81.82c-1.16-.32-1.18-.9-.04-1.29l151.83-51.87c1.14-.39,2.6.11,3.26,1.12l11.97,18.26c.66,1.01,2.07,1.4,3.16.87l19.65-9.53c1.08-.53,2.59-.21,3.37.71l103.7,122.45Z" fill="#f3b91f"/>
      <path d="M720.42,1179.88l-296.2-81.82c-3.5-.97-4.82-3.58-4.88-5.71-.06-2.13,1.09-4.82,4.53-5.99l151.83-51.87c3.41-1.16,7.61.28,9.58,3.29l10.54,16.08,17.29-8.39c3.24-1.57,7.59-.65,9.92,2.1l103.7,122.45c2.35,2.78,1.96,5.68.81,7.47-1.15,1.79-3.62,3.36-7.12,2.39ZM442.06,1091.67l266.34,73.57-92.36-109.07-17.8,8.64c-3.44,1.67-8.01.4-10.1-2.79l-10.85-16.55-135.23,46.2Z" fill="#f3b91f"/>
    </g>
    <g>
      <path d="M578.33,1037.11c.66,1.01.27,2.14-.87,2.53l-151.83,51.87c-1.14.39-1.8-.24-1.48-1.4l55.45-200.76c.32-1.16,1.12-1.29,1.78-.28l96.95,148.03Z" fill="#ffc630"/>
      <path d="M582.88,1034.13l-66.2-101.08-13.15-20.08s0-.02,0-.02l-10.85-16.57h-.02s-4.52-6.91-4.52-6.91l-2.2-3.37c-1.24-1.88-2.78-2.62-3.88-2.93-1.4-.39-2.75-.27-3.97.27-1.73.73-3.15,2.33-3.74,4.47l-55.46,200.78c-1.02,3.69.84,7.21,4.35,8.18,1.31.36,2.75.3,4.15-.17l149.88-51.21,1.95-.67c1.15-.38,2.14-1.03,2.93-1.86.69-.74,1.23-1.61,1.57-2.58.71-2.08.41-4.34-.85-6.24ZM431.56,1083.73l50.66-183.41,12.16,18.55,76.74,117.17-139.56,47.68Z" fill="#ffc630"/>
    </g>
    <path d="M426.45,1096.94c36.27-13.65,102.07-36.23,126.87-43.29-23.41,8.92-82.53,30.48-126.87,43.29Z" fill="#efa617"/>
    <path d="M640.8,1068.63c25.49,28.52,64.57,73.53,82.95,97.86-20.13-22.34-59.71-67.36-82.95-97.86Z" fill="#efa617"/>
    <g>
      <path d="M723.8,1173.66l-99.05-150.11-13.28-20.12c-.67-1.01-2.09-1.4-3.18-.88l-21.73,10.45-162.04,77.99c-1.09.52-1.03,1.21.14,1.53l298.23,82.38c1.17.32,1.58-.23.91-1.24Z" fill="#ffc630"/>
      <path d="M728.38,1170.66l-112.33-170.22c-1.06-1.59-2.67-2.76-4.56-3.28-1.89-.52-3.9-.36-5.62.47l-17.89,8.61-5.12,2.46-5.07,2.45-126.7,60.98-20.07,9.65-6.55,3.18-2.37,1.13c-3.12,1.48-4.03,4.2-3.84,6.22.05.59.2,1.22.5,1.83.67,1.53,2.05,2.98,4.44,3.64l298.23,82.38c3.34.92,5.84-.5,7.04-2.16,1.2-1.64,1.81-4.44-.1-7.34ZM608.33,1008.61l104.1,157.74-274.38-75.79,17.91-8.62s.03-.02,0-.02l21.71-10.45,130.65-62.86Z" fill="#ffc630"/>
    </g>
    <path d="M634.24,1028.03c25.75,35.62,79.4,119.49,93.7,143.01-15.47-21.24-68.81-102.44-93.7-143.01Z" fill="#efa617"/>
    <path d="M427.5,1084.02c40.38-17.36,129.47-61.8,153.82-74.64-24.18,10.29-111.64,52.59-153.82,74.64Z" fill="#efa617"/>
    <g>
      <path d="M756.09,880l-208.87-57.69c-1.58-.44-2.51-2.07-2.07-3.66.44-1.58,2.07-2.51,3.66-2.07l208.87,57.69c1.58.44,2.51,2.07,2.07,3.66s-2.07,2.51-3.66,2.07Z" fill="#eee"/>
      <path d="M750.26,901.09l-208.87-57.69c-1.58-.44-2.51-2.07-2.07-3.66.44-1.58,2.07-2.51,3.66-2.07l208.87,57.69c1.58.44,2.51,2.07,2.07,3.66-.44,1.58-2.07,2.51-3.66,2.07Z" fill="#eee"/>
      <path d="M744.44,922.18l-208.87-57.69c-1.58-.44-2.51-2.07-2.07-3.66.44-1.58,2.07-2.51,3.66-2.07l208.87,57.69c1.58.44,2.51,2.07,2.07,3.66-.44,1.58-2.07,2.51-3.66,2.07Z" fill="#eee"/>
      <path d="M738.61,943.27l-208.87-57.69c-1.58-.44-2.51-2.07-2.07-3.66.44-1.58,2.07-2.51,3.66-2.07l208.87,57.69c1.58.44,2.51,2.07,2.07,3.66-.44,1.58-2.07,2.51-3.66,2.07Z" fill="#eee"/>
      <path d="M732.79,964.36l-208.87-57.69c-1.58-.44-2.51-2.07-2.07-3.66.44-1.58,2.07-2.51,3.66-2.07l208.87,57.69c1.58.44,2.51,2.07,2.07,3.66-.44,1.58-2.07,2.51-3.66,2.07Z" fill="#eee"/>
      <path d="M726.96,985.44l-208.87-57.69c-1.58-.44-2.51-2.07-2.07-3.66.44-1.58,2.07-2.51,3.66-2.07l208.87,57.69c1.58.44,2.51,2.07,2.07,3.66-.44,1.58-2.07,2.51-3.66,2.07Z" fill="#eee"/>
    </g>
  </g>
  <path d="M729.12,746.06c-.97-5.82-3.1-11.7-6.71-16.74-1.8-2.51-3.91-4.83-6.31-6.76-2.4-1.94-5.01-3.55-7.72-4.87l-4.26,8.8c4.08,2.07,7.58,4.93,10.04,8.61,2.51,3.64,4.06,8,4.74,12.63.71,4.62.6,9.49-.1,14.3-.69,4.81-1.99,9.59-3.77,14.11-.9,2.25-1.92,4.44-3.08,6.48-.55,1.03-1.29,2-1.92,3l-.98,1.49-1.12,1.4c-1.42,1.93-3.12,3.62-4.76,5.35l-2.68,2.39c-.87.82-1.9,1.47-2.83,2.22-3.88,2.82-8.08,5.25-12.56,7.04-4.49,1.78-9.17,3.06-13.94,3.8-3.08.48-6.19.65-9.28.61-.34,4.74,2.04,8.69,6.98,11.9,1.41-.15,2.81-.34,4.2-.58,5.69-.99,11.26-2.61,16.59-4.85,5.32-2.25,10.33-5.24,14.94-8.74,1.12-.92,2.32-1.74,3.37-2.74l3.2-2.96c1.98-2.13,3.99-4.24,5.68-6.62l1.32-1.74,1.18-1.84c.76-1.25,1.6-2.42,2.29-3.74,1.42-2.6,2.59-5.24,3.61-7.93,2.01-5.38,3.41-10.93,4.12-16.62.72-5.68.78-11.54-.22-17.38Z" fill="#fff"/>
  <path d="M668.29,698.05c19.34,28.6,23.43,41.43,21.57,65.4,17.6-13.55,21.72-25.37,22.82-43.42-16.59-9.87-25.13-13.03-44.39-21.98Z" fill="#fff"/>
  <g>
    <path d="M546.54,921.06h-129.91c-4.59,0-7.42-5.03-5.03-8.95l64.96-106.68c2.29-3.77,7.76-3.77,10.06,0l64.96,106.68c2.39,3.92-.44,8.95-5.03,8.95Z" fill="#f50301"/>
    <circle cx="481.59" cy="897.62" r="5.8" fill="#fff"/>
    <path d="M477.71,883.76l-3.24-39.07c-.41-9.46,13.07-10.59,14.23-1.18.03.39.03.81,0,1.18l-3.24,39.07c-.53,4.74-7.23,4.72-7.75,0h0Z" fill="#fff"/>
  </g>
</svg>