<?xml version="1.0" encoding="UTF-8"?>
<svg id="Layer_3" xmlns="http://www.w3.org/2000/svg" version="1.1" xmlns:xlink="http://www.w3.org/1999/xlink" viewBox="0 0 1200 1200">
  <!-- Generator: Adobe Illustrator 29.8.4, SVG Export Plug-In . SVG Version: 2.1.1 Build 6)  -->
  <defs>
    <linearGradient id="linear-gradient" x1="410.73" y1="646.82" x2="410.73" y2="104.03" gradientUnits="userSpaceOnUse">
      <stop offset="0" stop-color="#fff"/>
      <stop offset="1" stop-color="#000" stop-opacity="0"/>
    </linearGradient>
  </defs>
  <g>
    <path d="M890.71,878.35l-30.67-21.94-228.98-156.3c-5.01-3.42-11.6-3.42-16.61,0l-229.03,156.33-33.57,21.9h1.48l33.62,21.94,237.28,161.96,237.34-162,30.61-21.9h-1.48Z" fill="#e2b700"/>
    <path d="M839.28,752.47h-434.51c-8.3,0-15.02,6.72-15.02,15.02v320.96h464.55v-320.96c0-8.3-6.72-15.02-15.02-15.02Z" fill="#fff"/>
    <g>
      <polygon points="353.34 878.35 593.66 1035.19 351.86 1178.43 353.34 878.35" fill="#f4c500"/>
      <polygon points="655.06 1035.19 892.19 878.35 892.19 1178.43 655.06 1035.19" fill="#f4c500"/>
    </g>
    <path d="M614.6,1003.9l-262.73,174.53h19.45s505.2,0,505.2,0h15.68s-261.27-174.51-261.27-174.51c-4.94-3.3-11.38-3.31-16.33-.02Z" fill="#ffd400"/>
  </g>
  <path d="M451.23,804.57h-.8c-24.56,0-44.55-19.98-44.55-44.55v-94.18h9.7v94.18c0,19.21,15.63,34.85,34.85,34.85h.8c19.21,0,34.85-15.63,34.85-34.85v-15.28h9.7v15.28c0,24.56-19.98,44.55-44.55,44.55Z" fill="#666"/>
  <path d="M492.7,731.03l-13.95,18.71c-.84,1.12-.04,2.72,1.37,2.72h15.65v-20.42c0-1.64-2.09-2.33-3.07-1.02Z" fill="#83838a"/>
  <path d="M410.73,670.7c-10.16,0-18.43-8.27-18.43-18.43s8.27-18.43,18.43-18.43,18.43,8.27,18.43,18.43-8.27,18.43-18.43,18.43ZM410.73,643.53c-4.81,0-8.73,3.92-8.73,8.73s3.92,8.73,8.73,8.73,8.73-3.92,8.73-8.73-3.92-8.73-8.73-8.73Z" fill="#83838a"/>
  <rect x="408.3" y="21.57" width="4.85" height="623.13" fill="url(#linear-gradient)"/>
  <g>
    <rect x="335.23" y="135.18" width="155.85" height="155.85" rx="11.71" ry="11.71" transform="translate(-29.68 354.56) rotate(-45)" fill="#ed1c24"/>
    <g>
      <path d="M413.14,245.45c-12.67,0-17.62-44.11-18.11-71.8,0-9.88,8.01-17.89,17.89-17.89h.46c9.88,0,17.89,8.01,17.89,17.89,0,0-3.59,72.65-18.14,71.8Z" fill="#fff"/>
      <circle cx="413.15" cy="258.69" r="11.76" fill="#fff"/>
    </g>
  </g>
</svg>