<?xml version="1.0" encoding="UTF-8"?>
<svg id="Layer_1" xmlns="http://www.w3.org/2000/svg" version="1.1" viewBox="0 0 1200 1200">
  <!-- Generator: Adobe Illustrator 29.8.4, SVG Export Plug-In . SVG Version: 2.1.1 Build 6)  -->
  <g>
    <path d="M334.25,104.98v141.4c0,2.87,2.33,5.19,5.19,5.19h141.4c2.87,0,5.19-2.33,5.19-5.19V104.98c0-2.87-2.33-5.19-5.19-5.19h-141.4c-2.87,0-5.19,2.33-5.19,5.19ZM354.28,119.82h111.72v111.72h-111.72v-111.72Z" fill="#fff"/>
    <rect x="381.62" y="147.16" width="57.04" height="57.04" rx="1.95" ry="1.95" fill="#fff"/>
    <path d="M334.25,635.47c0,2.87,2.33,5.19,5.19,5.19h141.4c2.87,0,5.19-2.33,5.19-5.19v-141.4c0-2.87-2.33-5.19-5.19-5.19h-141.4c-2.87,0-5.19,2.33-5.19,5.19v141.4ZM354.28,508.91h111.72v111.72h-111.72v-111.72Z" fill="#fff"/>
    <rect x="381.62" y="536.25" width="57.04" height="57.04" rx="1.95" ry="1.95" fill="#fff"/>
    <path d="M719.16,251.58h141.4c2.87,0,5.19-2.33,5.19-5.19V104.98c0-2.87-2.33-5.19-5.19-5.19h-141.4c-2.87,0-5.19,2.33-5.19,5.19v141.4c0,2.87,2.33,5.19,5.19,5.19ZM734,119.82h111.72v111.72h-111.72v-111.72Z" fill="#fff"/>
    <rect x="761.34" y="147.16" width="57.04" height="57.04" rx="1.95" ry="1.95" fill="#fff"/>
    <polygon points="535.22 192.75 535.22 174.15 535.22 155.56 553.49 155.56 553.49 136.97 571.76 136.97 571.76 118.38 553.49 118.38 553.49 99.79 535.22 99.79 516.95 99.79 516.95 118.38 535.22 118.38 535.22 136.97 516.95 136.97 498.68 136.97 498.68 155.56 498.68 174.15 498.68 192.75 516.95 192.75 535.22 192.75" fill="#fff"/>
    <polygon points="535.22 285.71 535.22 267.12 535.22 248.52 516.95 248.52 516.95 229.93 516.95 211.34 498.68 211.34 498.68 229.93 498.68 248.52 498.68 267.12 498.68 285.71 516.95 285.71 535.22 285.71" fill="#fff"/>
    <polygon points="535.22 603.05 535.22 584.46 535.22 584.03 516.95 584.03 516.95 565.44 516.95 546.85 535.22 546.85 553.49 546.85 553.49 546.42 553.49 527.83 553.49 509.24 571.76 509.24 571.76 508.81 571.76 490.22 553.49 490.22 553.49 508.81 535.22 508.81 535.22 490.22 516.95 490.22 516.95 471.63 498.68 471.63 498.68 490.22 498.68 508.81 498.68 509.24 498.68 527.83 498.68 546.42 498.68 546.85 498.68 565.44 498.68 584.03 498.68 584.46 498.68 603.05 516.95 603.05 535.22 603.05" fill="#fff"/>
    <polygon points="498.68 453.03 516.95 453.03 535.22 453.03 553.49 453.03 571.76 453.03 571.76 434.44 590.03 434.44 590.03 415.85 608.29 415.85 608.29 434.44 626.57 434.44 644.84 434.44 644.84 453.03 644.84 471.63 663.1 471.63 663.1 453.03 663.1 434.44 663.1 415.85 644.84 415.85 626.57 415.85 626.57 397.26 626.57 378.67 644.84 378.67 644.84 360.08 644.84 341.48 626.57 341.48 608.29 341.48 608.29 360.08 608.29 378.67 590.03 378.67 590.03 397.26 571.76 397.26 553.49 397.26 535.22 397.26 516.95 397.26 498.68 397.26 498.68 415.85 480.4 415.85 462.14 415.85 443.87 415.85 425.6 415.85 425.6 397.26 425.6 378.67 407.33 378.67 407.33 360.08 407.33 341.48 389.06 341.48 370.79 341.48 370.79 360.08 370.79 378.67 370.79 397.26 389.06 397.26 407.33 397.26 407.33 415.85 407.33 434.44 425.6 434.44 425.6 453.03 443.87 453.03 443.87 434.44 462.14 434.44 480.4 434.44 498.68 434.44 498.68 453.03" fill="#fff"/>
    <rect x="462.14" y="267.12" width="18.27" height="18.59" fill="#fff"/>
    <rect x="480.4" y="267.12" width="18.27" height="18.59" fill="#fff"/>
    <rect x="462.14" y="304.3" width="18.27" height="18.59" fill="#fff"/>
    <polygon points="462.14 341.48 462.14 360.08 480.4 360.08 498.68 360.08 498.68 378.67 516.95 378.67 516.95 360.08 535.22 360.08 553.49 360.08 553.49 341.48 571.76 341.48 571.76 360.08 590.03 360.08 590.03 341.48 590.03 322.89 590.03 304.3 608.29 304.3 608.29 285.71 608.29 267.12 626.57 267.12 626.57 248.52 626.57 229.93 608.29 229.93 608.29 248.52 590.03 248.52 590.03 267.12 571.76 267.12 571.76 285.71 571.76 304.3 553.49 304.3 535.22 304.3 535.22 322.89 516.95 322.89 516.95 341.48 498.68 341.48 480.4 341.48 462.14 341.48" fill="#fff"/>
    <rect x="462.14" y="453.03" width="18.27" height="18.59" fill="#fff"/>
    <rect x="462.14" y="434.44" width="18.27" height="18.59" fill="#fff"/>
    <polygon points="443.87 378.67 443.87 397.26 462.14 397.26 480.4 397.26 480.4 378.67 462.14 378.67 462.14 360.08 443.87 360.08 443.87 378.67" fill="#fff"/>
    <polygon points="443.87 322.89 425.59 322.89 425.59 341.48 425.59 360.08 443.87 360.08 443.87 341.48 443.87 322.89" fill="#fff"/>
    <polygon points="425.59 304.3 443.87 304.3 462.14 304.3 462.14 285.71 443.87 285.71 443.87 267.12 425.59 267.12 407.33 267.12 389.06 267.12 389.06 285.71 389.06 304.3 407.33 304.3 425.59 304.3" fill="#fff"/>
    <rect x="389.06" y="434.44" width="18.27" height="18.59" fill="#fff"/>
    <rect x="370.79" y="304.3" width="18.27" height="18.59" fill="#fff"/>
    <rect x="370.79" y="322.89" width="18.27" height="18.59" fill="#fff"/>
    <rect x="370.79" y="415.85" width="18.27" height="18.59" fill="#fff"/>
    <rect x="370.79" y="453.03" width="18.27" height="18.59" fill="#fff"/>
    <polygon points="352.52 285.71 334.25 285.71 334.25 304.3 334.25 322.89 334.25 341.48 352.52 341.48 352.52 322.89 352.52 304.3 370.79 304.3 370.79 285.71 352.52 285.71" fill="#fff"/>
    <polygon points="334.25 397.26 334.25 415.85 334.25 434.44 334.25 453.03 352.52 453.03 352.52 434.44 352.52 415.85 352.52 397.26 352.52 378.67 334.25 378.67 334.25 397.26" fill="#fff"/>
    <polygon points="717.91 490.22 717.91 508.81 717.91 509.24 736.19 509.24 736.19 508.81 736.6 508.81 736.6 490.22 736.19 490.22 717.91 490.22" fill="#fff"/>
    <polygon points="717.91 509.24 717.91 527.83 717.91 528.25 736.19 528.25 736.19 527.83 736.6 527.83 736.6 509.24 736.19 509.24 717.91 509.24" fill="#fff"/>
    <path d="M810.1,397.26v18.59h-18.27v18.59h-18.27v-37.19h-55.65v37.19h-36.54v111.98h-36.54v37.61h-18.27v19.02h-18.27v37.61h36.54v-37.61h18.27v-37.61h36.54v-18.59h36.54v-.43h.42v.43h-.42v18.59h-18.27v18.59h-18.27v19.02h-18.27v37.61h36.54v-18.59h18.27v-.42h.42v.42h18.27v18.59h18.69v-18.59h-.42v-.42h.42v-18.59h-36.96v-18.59h-.42v-.43h.42v.43h36.54v-.43h.42v.43h18.27v-19.02h18.69v-18.59h-.42v-.43h.42v-18.59h-36.96v-18.59h-.42v-.42h.42v-55.78h18.27v18.59h18.69v-37.18h18.27v37.18h18.27v18.59h-55.23v19.02h18.27v-.42h.42v.42h18.27v37.61h18.27v-.43h.42v.43h-.42v18.59h-18.27v19.02h18.27v-.43h.42v.43h-.42v18.59h-18.27v18.59h-18.27v.42h-.42v18.59h18.69v-18.59h18.27v-.42h.42v.42h18.27v-94.24h-18.27v-18.59h-.42v-.42h.42v-18.59h18.27v-18.59h-18.27v-18.59h18.27v-55.78h-18.27v-18.59h-18.69v18.59h18.27v18.59h-18.27v-18.59h-18.27v-18.59h-18.69v18.59h18.27ZM736.6,527.83h-36.96v-56.2h55.23v56.2h-18.27ZM773.56,546.42v.43h-.42v18.59h-18.27v-18.59h18.27v-.43h.42Z" fill="#fff"/>
    <polygon points="810.53 322.89 810.1 322.89 791.84 322.89 791.84 341.48 773.56 341.48 773.15 341.48 773.15 360.08 754.87 360.08 754.87 341.48 736.6 341.48 736.18 341.48 717.91 341.48 699.65 341.48 681.38 341.48 681.38 360.08 681.38 378.67 681.38 397.26 699.65 397.26 699.65 378.67 717.91 378.67 736.19 378.67 736.6 378.67 754.87 378.67 773.15 378.67 773.56 378.67 791.84 378.67 791.84 360.08 810.1 360.08 810.53 360.08 810.53 341.48 828.79 341.48 828.79 322.89 810.53 322.89" fill="#fff"/>
    <polygon points="847.06 360.08 847.48 360.08 865.75 360.08 865.75 341.48 865.75 322.89 865.75 304.3 847.48 304.3 847.48 285.71 847.06 285.71 828.79 285.71 828.79 267.12 810.53 267.12 810.1 267.12 791.84 267.12 773.56 267.12 773.15 267.12 754.87 267.12 736.6 267.12 736.18 267.12 717.91 267.12 717.91 285.71 699.65 285.71 699.65 304.3 699.65 322.89 717.91 322.89 717.91 304.3 736.18 304.3 736.6 304.3 736.6 285.71 754.87 285.71 773.15 285.71 773.15 304.3 773.56 304.3 791.84 304.3 810.1 304.3 810.53 304.3 828.79 304.3 847.06 304.3 847.06 322.89 847.06 341.48 828.79 341.48 828.79 360.08 847.06 360.08" fill="#fff"/>
    <polygon points="699.65 155.56 699.65 136.97 681.38 136.97 663.1 136.97 663.1 155.56 681.38 155.56 699.65 155.56" fill="#fff"/>
    <rect x="681.38" y="229.93" width="18.27" height="18.59" fill="#fff"/>
    <rect x="699.65" y="229.93" width="18.27" height="18.59" fill="#fff"/>
    <polygon points="663.1 267.12 663.1 285.71 681.38 285.71 681.38 267.12 681.38 248.52 663.1 248.52 663.1 267.12" fill="#fff"/>
    <rect x="644.84" y="378.67" width="18.27" height="18.59" fill="#fff"/>
    <rect x="644.84" y="397.26" width="18.27" height="18.59" fill="#fff"/>
    <polygon points="626.57 229.93 644.84 229.93 644.84 248.52 663.1 248.52 663.1 229.93 681.38 229.93 681.38 211.34 699.65 211.34 699.65 192.75 699.65 174.15 681.38 174.15 663.1 174.15 663.1 192.75 644.84 192.75 626.57 192.75 626.57 211.34 626.57 229.93" fill="#fff"/>
    <polygon points="626.57 304.3 626.57 322.89 644.84 322.89 663.1 322.89 663.1 304.3 644.84 304.3 644.84 285.71 644.84 267.12 626.57 267.12 626.57 285.71 626.57 304.3" fill="#fff"/>
    <polygon points="608.29 509.24 608.29 527.83 590.03 527.83 571.76 527.83 571.76 546.42 571.76 546.85 590.03 546.85 608.29 546.85 626.57 546.85 626.57 546.42 626.57 527.83 644.84 527.83 644.84 509.24 644.84 508.81 644.84 490.22 626.57 490.22 626.57 471.63 608.29 471.63 608.29 453.03 590.03 453.03 590.03 471.63 590.03 490.22 608.29 490.22 608.29 508.81 608.29 509.24" fill="#fff"/>
    <polygon points="608.29 118.38 626.57 118.38 626.57 136.97 626.57 155.56 644.84 155.56 644.84 136.97 644.84 118.38 644.84 99.79 626.57 99.79 608.29 99.79 590.03 99.79 590.03 118.38 590.03 136.97 608.29 136.97 608.29 118.38" fill="#fff"/>
    <polygon points="608.29 192.75 626.57 192.75 626.57 174.15 608.29 174.15 608.29 155.56 590.03 155.56 590.03 174.15 571.76 174.15 571.76 192.75 590.03 192.75 590.03 211.34 608.29 211.34 608.29 192.75" fill="#fff"/>
    <polygon points="608.29 584.03 608.29 565.44 590.03 565.44 571.76 565.44 553.49 565.44 553.49 584.03 553.49 584.46 571.76 584.46 590.03 584.46 590.03 603.05 608.29 603.05 608.29 584.46 608.29 584.03" fill="#fff"/>
    <polygon points="590.03 211.34 571.76 211.34 571.76 229.93 571.76 248.52 590.03 248.52 590.03 229.93 590.03 211.34" fill="#fff"/>
    <polygon points="571.76 640.66 571.76 622.07 571.76 621.65 571.76 603.05 553.49 603.05 553.49 621.65 535.22 621.65 535.22 622.07 535.22 640.66 553.49 640.66 571.76 640.66" fill="#fff"/>
    <rect x="535.22" y="192.75" width="18.27" height="18.59" fill="#fff"/>
    <rect x="553.49" y="192.75" width="18.27" height="18.59" fill="#fff"/>
    <rect x="535.22" y="229.93" width="18.27" height="18.59" fill="#fff"/>
    <path d="M283.29,154.46c3.9,0,7.05-3.16,7.05-7.05v-80.12c0-3.7,3.01-6.72,6.72-6.72h80.12c3.9,0,7.05-3.16,7.05-7.05s-3.16-7.05-7.05-7.05h-80.12c-11.48,0-20.82,9.34-20.82,20.82v80.12c0,3.9,3.16,7.05,7.05,7.05Z" fill="#fff"/>
    <path d="M384.23,686.94c0-3.9-3.16-7.05-7.05-7.05h-80.12c-3.7,0-6.72-3.01-6.72-6.72v-80.12c0-3.9-3.16-7.05-7.05-7.05s-7.05,3.16-7.05,7.05v80.12c0,11.48,9.34,20.82,20.82,20.82h80.12c3.9,0,7.05-3.16,7.05-7.05Z" fill="#fff"/>
    <path d="M916.71,585.99c-3.9,0-7.05,3.16-7.05,7.05v80.12c0,3.7-3.01,6.72-6.72,6.72h-80.12c-3.9,0-7.05,3.16-7.05,7.05s3.16,7.05,7.05,7.05h80.12c11.48,0,20.82-9.34,20.82-20.82v-80.12c0-3.9-3.16-7.05-7.05-7.05Z" fill="#fff"/>
    <path d="M902.94,46.46h-80.12c-3.9,0-7.05,3.16-7.05,7.05s3.16,7.05,7.05,7.05h80.12c3.7,0,6.72,3.01,6.72,6.72v80.12c0,3.9,3.16,7.05,7.05,7.05s7.05-3.16,7.05-7.05v-80.12c0-11.48-9.34-20.82-20.82-20.82Z" fill="#fff"/>
  </g>
  <g>
    <path d="M711.21,471.63h-222.42c-7.86,0-12.7-8.6-8.61-15.32l111.21-182.64c3.93-6.45,13.29-6.45,17.22,0l111.21,182.64c4.09,6.72-.75,15.32-8.61,15.32Z" fill="#f50301"/>
    <circle cx="600" cy="431.51" r="9.93" fill="#fff"/>
    <path d="M593.37,407.78l-5.55-66.9c-.7-16.19,22.37-18.13,24.36-2.02.05.66.05,1.38,0,2.02l-5.55,66.9c-.9,8.11-12.38,8.08-13.26,0h0Z" fill="#fff"/>
  </g>
  <g>
    <path d="M862.2,1153.54c-29.34,0-53.21-23.87-53.21-53.21,0-27.49,20.96-50.19,47.74-52.93v-32.91c0-3.02,2.45-5.47,5.47-5.47s5.47,2.45,5.47,5.47v43.57h-5.47c-23.31,0-42.28,18.97-42.28,42.28s18.97,42.27,42.28,42.27,42.28-18.96,42.28-42.27c0-3.02,2.45-5.47,5.47-5.47s5.47,2.45,5.47,5.47c0,29.34-23.87,53.21-53.21,53.21Z" fill="red"/>
    <path d="M917.05,1119.34c-2.02,0-3.95-1.12-4.91-3.04l-7.1-14.35c-1.34-2.71-.23-5.99,2.48-7.33,2.71-1.34,5.98-.23,7.33,2.48l7.1,14.35c1.34,2.71.23,5.99-2.48,7.33-.78.38-1.6.57-2.42.57Z" fill="red"/>
    <path d="M862.2,1033.66c-3.02,0-5.47-2.45-5.47-5.47v-8.89c0-3.02,2.45-5.47,5.47-5.47s5.47,2.45,5.47,5.47v8.89c0,3.02-2.45,5.47-5.47,5.47Z" fill="#8e0000"/>
    <path d="M862.2,1019.95c-12.54,0-22.74-10.2-22.74-22.74s10.2-22.74,22.74-22.74,22.74,10.2,22.74,22.74-10.2,22.74-22.74,22.74ZM862.2,985.42c-6.51,0-11.8,5.29-11.8,11.8s5.29,11.8,11.8,11.8,11.8-5.29,11.8-11.8-5.29-11.8-11.8-11.8Z" fill="red"/>
    <rect x="856.73" y="689.61" width="10.94" height="290.34" fill="#fff"/>
    <path d="M862.2,969.87c-3.02,0-5.47-2.45-5.47-5.47v-8.89c0-3.02,2.45-5.47,5.47-5.47s5.47,2.45,5.47,5.47v8.89c0,3.02-2.45,5.47-5.47,5.47Z" fill="#a5ddea"/>
    <path d="M856.85,996.07c-3.02,0-5.47-2.45-5.47-5.47v-22.56c0-3.02,2.45-5.47,5.47-5.47s5.47,2.45,5.47,5.47v22.56c0,3.02-2.45,5.47-5.47,5.47Z" fill="#fff"/>
    <path d="M867.66,996.07c-3.02,0-5.47-2.45-5.47-5.47v-22.56c0-3.02,2.45-5.47,5.47-5.47s5.47,2.45,5.47,5.47v22.56c0,3.02-2.45,5.47-5.47,5.47Z" fill="#fff"/>
  </g>
</svg>