<?xml version="1.0" encoding="UTF-8"?>
<svg id="Layer_5" xmlns="http://www.w3.org/2000/svg" version="1.1" xmlns:xlink="http://www.w3.org/1999/xlink" viewBox="0 0 1200 1200">
  <!-- Generator: Adobe Illustrator 29.8.4, SVG Export Plug-In . SVG Version: 2.1.1 Build 6)  -->
  <defs>
    <linearGradient id="linear-gradient" x1="572.2" y1="416.92" x2="572.2" y2="96.82" gradientUnits="userSpaceOnUse">
      <stop offset="0" stop-color="#fff"/>
      <stop offset="1" stop-color="#000" stop-opacity="0"/>
    </linearGradient>
  </defs>
  <g>
    <rect x="411" y="457.32" width="377.99" height="726.57" rx="14.85" ry="14.85" fill="#3d2686"/>
    <rect x="437.6" y="529.5" width="324.79" height="582.22" fill="#fff"/>
    <path d="M621.65,1148.82c0,11.96-9.69,21.65-21.65,21.65s-21.65-9.69-21.65-21.65,9.69-21.65,21.65-21.65,21.65,9.69,21.65,21.65Z" fill="#9d5bf2"/>
    <path d="M632.16,507.85h-64.31c-3.04,0-5.51-2.47-5.51-5.51h0c0-3.04,2.47-5.51,5.51-5.51h64.31c3.04,0,5.51,2.47,5.51,5.51h0c0,3.04-2.47,5.51-5.51,5.51Z" fill="#9d5bf2"/>
    <path d="M550.78,502.33c0,3.12-2.53,5.66-5.66,5.66s-5.66-2.53-5.66-5.66,2.53-5.66,5.66-5.66,5.66,2.53,5.66,5.66Z" fill="#9d5bf2"/>
  </g>
  <g>
    <path d="M572.2,541.45c-.67,0-1.21-.54-1.21-1.21V90.42c0-.67.54-1.21,1.21-1.21s1.21.54,1.21,1.21v449.82c0,.67-.54,1.21-1.21,1.21Z" fill="url(#linear-gradient)"/>
    <rect x="467.5" y="671.73" width="265" height="367.01" rx="7.89" ry="7.89" fill="#9d5bf2"/>
    <g>
      <circle cx="600" cy="745.52" r="33.98" transform="translate(-263.9 1157.2) rotate(-76.65)" fill="#3d2686"/>
      <path d="M650.97,816.1h-101.94c0-25.02,20.28-45.31,45.31-45.31h11.33c25.02,0,45.31,20.28,45.31,45.31h0Z" fill="#3d2686"/>
    </g>
    <g>
      <path d="M629.06,862.31h-107.36c-4.08,0-7.39-3.31-7.39-7.39h0c0-4.08,3.31-7.39,7.39-7.39h107.36c4.08,0,7.39,3.31,7.39,7.39h0c0,4.08-3.31,7.39-7.39,7.39Z" fill="#ffc400"/>
      <path d="M580.3,889.89h-58.6c-4.08,0-7.39-3.31-7.39-7.39h0c0-4.08,3.31-7.39,7.39-7.39h58.6c4.08,0,7.39,3.31,7.39,7.39h0c0,4.08-3.31,7.39-7.39,7.39Z" fill="#ffc400"/>
      <g>
        <path d="M682.24,921.41h-164.48c-1.9,0-3.45-1.54-3.45-3.45h0c0-1.9,1.54-3.45,3.45-3.45h164.48c1.9,0,3.45,1.54,3.45,3.45h0c0,1.9-1.54,3.45-3.45,3.45Z" fill="#fff"/>
        <path d="M682.24,939.38h-164.48c-1.9,0-3.45-1.54-3.45-3.45h0c0-1.9,1.54-3.45,3.45-3.45h164.48c1.9,0,3.45,1.54,3.45,3.45h0c0,1.9-1.54,3.45-3.45,3.45Z" fill="#fff"/>
        <path d="M682.24,957.36h-164.48c-1.9,0-3.45-1.54-3.45-3.45h0c0-1.9,1.54-3.45,3.45-3.45h164.48c1.9,0,3.45,1.54,3.45,3.45h0c0,1.9-1.54,3.45-3.45,3.45Z" fill="#fff"/>
        <path d="M682.24,975.33h-164.48c-1.9,0-3.45-1.54-3.45-3.45h0c0-1.9,1.54-3.45,3.45-3.45h164.48c1.9,0,3.45,1.54,3.45,3.45h0c0,1.9-1.54,3.45-3.45,3.45Z" fill="#fff"/>
        <path d="M614.77,993.31h-97.02c-1.9,0-3.45-1.54-3.45-3.45h0c0-1.9,1.54-3.45,3.45-3.45h97.02c1.9,0,3.45,1.54,3.45,3.45h0c0,1.9-1.54,3.45-3.45,3.45Z" fill="#fff"/>
      </g>
    </g>
    <g>
      <path d="M620.02,691.36c4.92-3.65,7.89-8.64,7.89-17.79v-22.96h.04s0-17.54,0-17.54l-13.92,17.55,7.82-1.72.34.1v24.57c0,6-2.11,10.02-4.9,12.72l2.73,5.07ZM583.33,683.9c-7.97-8.29-8.15-20.29-8.16-21.05v-105.55c4.24-1.25,7.37-5.13,7.37-9.77,0-5.64-4.59-10.23-10.23-10.23s-10.23,4.59-10.23,10.23c0,4.64,3.13,8.53,7.37,9.77v105.55c0,.22.16,13.68,8.64,23.74l5.24-2.69ZM566.55,547.52c0-3.17,2.58-5.76,5.76-5.76s5.76,2.58,5.76,5.76-2.58,5.76-5.76,5.76-5.76-2.58-5.76-5.76Z" fill="#ffc400"/>
      <path d="M578.57,688.08l-2.25-.88c.06-.17,1.64-4.08,7.44-4.82l.31,2.4c-4.31.55-5.45,3.19-5.5,3.31Z" fill="#8651dd"/>
      <path d="M619.39,692.19c-.95-4.24-3.69-5.13-3.81-5.17l.67-2.32c.17.05,4.21,1.25,5.49,6.96l-2.35.53Z" fill="#8651dd"/>
    </g>
  </g>
  <g>
    <circle cx="566.55" cy="154.34" r="138.24" fill="#ed1c24"/>
    <g>
      <path d="M566.53,202.62c-18.9.01-26.3-65.81-27.02-107.14,0-14.74,11.95-26.7,26.7-26.7h.69c14.74,0,26.7,11.95,26.7,26.7,0,0-5.35,108.41-27.06,107.14Z" fill="#fff"/>
      <circle cx="566.55" cy="222.37" r="17.54" fill="#fff"/>
    </g>
  </g>
</svg>