<?xml version="1.0" encoding="UTF-8"?>
<svg id="Layer_6" xmlns="http://www.w3.org/2000/svg" version="1.1" xmlns:xlink="http://www.w3.org/1999/xlink" viewBox="0 0 1200 1200">
  <!-- Generator: Adobe Illustrator 29.8.4, SVG Export Plug-In . SVG Version: 2.1.1 Build 6)  -->
  <defs>
    <linearGradient id="linear-gradient" x1="411.99" y1="286.72" x2="411.99" y2="114.81" gradientUnits="userSpaceOnUse">
      <stop offset="0" stop-color="#fff"/>
      <stop offset="1" stop-color="#000" stop-opacity="0"/>
    </linearGradient>
    <linearGradient id="linear-gradient1" x1="329.78" y1="286.72" x2="329.78" y2="114.81" xlink:href="#linear-gradient"/>
    <linearGradient id="linear-gradient2" x1="411.99" y1="286.72" x2="411.99" y2="114.81" xlink:href="#linear-gradient"/>
    <linearGradient id="linear-gradient3" x1="411.99" y1="286.72" x2="411.99" y2="114.81" xlink:href="#linear-gradient"/>
    <linearGradient id="linear-gradient4" x1="411.99" y1="286.72" x2="411.99" y2="114.81" xlink:href="#linear-gradient"/>
    <linearGradient id="linear-gradient5" x1="411.99" y1="286.72" x2="411.99" y2="114.81" xlink:href="#linear-gradient"/>
    <linearGradient id="linear-gradient6" x1="420.56" y1="286.72" x2="420.56" y2="114.81" xlink:href="#linear-gradient"/>
    <linearGradient id="linear-gradient7" x1="403.24" y1="286.72" x2="403.24" y2="114.81" xlink:href="#linear-gradient"/>
  </defs>
  <g>
    <g>
      <path d="M646.66,1183.79l-312.55-34.44c-15.65-1.72-26.93-15.8-25.21-31.45l67.59-613.42c1.72-15.65,15.8-26.93,31.45-25.21l312.55,34.44c15.64,1.72,26.93,15.8,25.21,31.45l-67.59,613.42c-1.72,15.65-15.8,26.93-31.45,25.21Z" fill="#fff"/>
      <path d="M656.8,546.64l-2.55,23.17c-.89,8.12-8.2,13.97-16.32,13.08l-164.47-18.12c-8.12-.89-13.97-8.2-13.08-16.32l2.55-23.17-63.56-7-65.14,591.15,321,35.37,65.14-591.15-63.56-7Z" fill="#1daaca"/>
      <g>
        <path d="M501.5,534.09c-.58,5.27-5.32,9.06-10.59,8.48-5.27-.58-9.06-5.32-8.48-10.59.58-5.27,5.32-9.06,10.59-8.48,5.27.58,9.06,5.32,8.48,10.59Z" fill="#385580"/>
        <path d="M625.73,557.42l-100.11-11.03c-5.27-.58-9.06-5.32-8.48-10.59h0c.58-5.27,5.32-9.06,10.59-8.48l100.11,11.03c5.27.58,9.06,5.32,8.48,10.59h0c-.58,5.27-5.32,9.06-10.59,8.48Z" fill="#385580"/>
      </g>
      <rect x="399.92" y="713.95" width="244.6" height="327.27" transform="translate(99.26 -51.92) rotate(6.29)" fill="#d2eef4"/>
      <rect x="471.74" y="646.52" width="136.82" height="136.82" transform="translate(81.55 -54.86) rotate(6.29)" fill="#fff"/>
      <rect x="426.57" y="817.35" width="199.31" height="47.96" transform="translate(95.31 -52.57) rotate(6.29)" fill="#fff"/>
      <rect x="418.86" y="887.27" width="199.31" height="47.96" transform="translate(102.93 -51.31) rotate(6.29)" fill="#fff"/>
      <rect x="452.11" y="965.14" width="115.64" height="47.96" transform="translate(111.4 -49.9) rotate(6.29)" fill="#1daaca"/>
      <g>
        <path d="M575.11,694.16c-1.96,17.83-18.01,30.69-35.84,28.73-17.83-1.96-30.69-18.01-28.73-35.84,1.96-17.83,18.01-30.69,35.84-28.73,17.83,1.96,30.69,18.01,28.73,35.84Z" fill="#385580"/>
        <path d="M539.64,719.57c-28.71-3.16-54.54,17.54-57.7,46.25l103.95,11.45c3.16-28.71-17.54-54.54-46.25-57.7Z" fill="#385580"/>
      </g>
      <g>
        <path d="M467.83,842.92c-2.12-.23-3.72-1.04-4.81-2.41-1.08-1.37-1.49-3.28-1.22-5.72l1.09-9.84,1.24.14-1.08,9.79c-.24,2.14.08,3.77.94,4.9.86,1.13,2.19,1.8,3.98,1.99,1.77.2,3.21-.16,4.3-1.09,1.09-.91,1.75-2.44,1.98-4.57l1.08-9.79,1.25.14-1.09,9.84c-.27,2.44-1.09,4.21-2.44,5.31-1.36,1.11-3.1,1.54-5.23,1.3Z" fill="#385580"/>
        <path d="M483.33,844.6c-1.06-.11-2.03-.38-2.91-.79-.89-.41-1.56-.88-2.01-1.4l.67-.92c.44.48,1.05.91,1.83,1.3.79.39,1.65.64,2.59.74,1.34.15,2.32.03,2.96-.34.64-.37.99-.92,1.07-1.64.06-.52-.05-.95-.31-1.29-.28-.33-.64-.61-1.13-.83-.49-.22-1.02-.41-1.62-.58-.58-.17-1.17-.35-1.76-.56-.59-.19-1.12-.44-1.6-.74-.48-.3-.84-.68-1.1-1.14-.25-.47-.34-1.06-.26-1.77.07-.65.31-1.22.73-1.7.41-.48,1-.84,1.75-1.08.75-.24,1.66-.3,2.74-.18.8.09,1.59.29,2.37.61.78.32,1.4.69,1.87,1.12l-.67.91c-.49-.46-1.07-.83-1.71-1.08-.65-.25-1.32-.42-2-.5-1.24-.13-2.17,0-2.79.39-.63.39-.98.93-1.06,1.62-.06.54.04.98.31,1.33.26.35.64.64,1.12.86.5.23,1.03.43,1.62.59.59.18,1.18.36,1.77.56.59.2,1.12.44,1.61.73.48.29.84.66,1.1,1.11.26.45.35,1.02.27,1.72-.07.7-.34,1.29-.78,1.77-.43.48-1.05.83-1.82,1.04-.79.21-1.72.26-2.81.13Z" fill="#385580"/>
        <path d="M496.96,846.11c-1.28-.14-2.39-.55-3.31-1.2-.92-.67-1.61-1.51-2.07-2.55-.45-1.04-.61-2.18-.48-3.44.14-1.27.53-2.36,1.17-3.27.63-.91,1.44-1.59,2.44-2.04.98-.45,2.06-.61,3.21-.49,1.15.13,2.17.51,3.03,1.15.86.64,1.5,1.47,1.93,2.5.43,1.03.56,2.18.42,3.44,0,.05-.01.1-.03.16-.01.06-.02.12-.03.18l-11.26-1.24.1-.95,10.6,1.17-.54.41c.12-.99.01-1.91-.33-2.74-.34-.84-.85-1.52-1.54-2.05-.68-.53-1.51-.84-2.47-.95-.94-.1-1.81.02-2.6.39-.79.37-1.44.92-1.95,1.67-.51.74-.82,1.62-.93,2.63l-.02.22c-.11,1.04.02,1.99.39,2.85.37.85.95,1.55,1.71,2.09.77.54,1.67.86,2.71.98.82.09,1.59.03,2.33-.19.74-.21,1.39-.59,1.95-1.14l.62.88c-.63.62-1.38,1.07-2.26,1.32-.88.26-1.8.33-2.79.23Z" fill="#385580"/>
        <path d="M506.37,847.05l1.4-12.75,1.17.13-.38,3.49-.08-.4c.48-.99,1.16-1.71,2.07-2.17.91-.46,1.99-.62,3.27-.48l-.13,1.2s-.1-.01-.15-.03-.1-.02-.14-.02c-1.42-.16-2.57.16-3.47.96-.89.8-1.43,1.99-1.61,3.57l-.73,6.64-1.22-.13Z" fill="#385580"/>
        <path d="M522.66,848.84l1.89-17.09,1.05.12,10.47,16.9-.56-.06,1.71-15.55,1.24.14-1.89,17.09-1.02-.12-10.5-16.9.56.06-1.71,15.56-1.24-.14Z" fill="#385580"/>
        <path d="M545.58,851.47c-.94-.11-1.74-.35-2.4-.73-.66-.37-1.13-.86-1.44-1.45-.3-.59-.42-1.25-.34-1.96.07-.65.29-1.23.64-1.72.36-.5.91-.87,1.65-1.13.74-.25,1.69-.32,2.86-.19l4.69.52-.11.95-4.67-.52c-1.32-.15-2.26,0-2.85.43s-.92,1.01-1,1.75c-.09.81.15,1.49.71,2.05.57.56,1.41.89,2.53,1.02,1.08.12,2.01-.02,2.8-.43.8-.41,1.42-1.06,1.89-1.95l.25.87c-.44.89-1.11,1.56-1.99,2.02-.88.45-1.95.61-3.23.47ZM550.18,851.87l.32-2.91v-.45l.53-4.78c.13-1.19-.09-2.13-.67-2.81-.58-.69-1.48-1.11-2.73-1.24-.88-.1-1.71-.03-2.5.19-.79.22-1.48.53-2.07.94l-.51-.95c.7-.5,1.51-.86,2.44-1.08.93-.22,1.88-.27,2.85-.16,1.58.17,2.76.71,3.52,1.6.76.89,1.05,2.13.87,3.7l-.89,8.09-1.17-.13Z" fill="#385580"/>
        <path d="M573.67,841.46c1.03.11,1.9.41,2.61.89.71.49,1.24,1.15,1.57,2,.33.85.44,1.87.31,3.06l-.82,7.45-1.22-.14.81-7.35c.16-1.43-.07-2.56-.69-3.39-.62-.83-1.55-1.31-2.8-1.44-.96-.11-1.82,0-2.56.33-.75.33-1.35.84-1.8,1.53-.46.69-.74,1.55-.85,2.57l-.75,6.79-1.22-.13.81-7.35c.16-1.43-.07-2.56-.69-3.38-.62-.83-1.56-1.31-2.8-1.45-.96-.1-1.82,0-2.56.34-.74.33-1.35.84-1.8,1.53-.46.69-.74,1.55-.85,2.57l-.75,6.79-1.22-.13,1.4-12.75,1.17.13-.39,3.52-.13-.41c.48-.95,1.2-1.67,2.14-2.16.94-.48,2.03-.65,3.28-.51,1.27.14,2.3.58,3.1,1.32.8.74,1.24,1.75,1.33,3.05l-.4-.22c.47-1.05,1.21-1.87,2.23-2.44,1.01-.57,2.2-.79,3.55-.63Z" fill="#385580"/>
        <path d="M587.53,856.09c-1.29-.14-2.39-.55-3.31-1.21-.93-.66-1.62-1.51-2.07-2.55-.46-1.04-.61-2.19-.48-3.44.14-1.27.53-2.36,1.17-3.27.63-.91,1.44-1.59,2.43-2.04.99-.45,2.06-.61,3.21-.49,1.16.13,2.17.51,3.03,1.15.86.64,1.5,1.47,1.93,2.5.42,1.03.56,2.18.42,3.44,0,.05-.01.1-.03.16,0,.06-.02.12-.03.18l-11.26-1.24.1-.95,10.6,1.16-.54.41c.12-.99.01-1.91-.33-2.74-.35-.84-.86-1.52-1.54-2.05-.68-.53-1.51-.85-2.47-.95-.94-.1-1.81.02-2.6.39-.79.36-1.44.92-1.95,1.67-.51.74-.82,1.62-.93,2.63l-.02.22c-.11,1.04.02,1.99.39,2.85.38.85.95,1.55,1.71,2.09.77.54,1.67.86,2.71.98.82.09,1.59.03,2.33-.19.74-.22,1.39-.6,1.95-1.14l.62.88c-.64.62-1.39,1.07-2.26,1.32-.88.26-1.8.33-2.78.23Z" fill="#385580"/>
      </g>
      <g>
        <path d="M478.75,992.88l1.88-17.09,1.25.14-1.76,15.97,9.84,1.08-.12,1.12-11.09-1.22Z" fill="#fff"/>
        <path d="M497.4,995.03c-1.22-.13-2.28-.53-3.17-1.19-.89-.66-1.56-1.51-2.02-2.55-.46-1.04-.61-2.18-.47-3.44.14-1.27.54-2.36,1.21-3.27.67-.91,1.51-1.58,2.52-2.03,1.01-.45,2.13-.61,3.35-.47,1.22.13,2.28.53,3.18,1.19.9.66,1.57,1.5,2.02,2.53.45,1.03.6,2.18.46,3.45-.14,1.25-.54,2.34-1.2,3.25-.66.92-1.5,1.6-2.52,2.05-1.02.45-2.14.6-3.36.47ZM497.52,993.93c.98.11,1.88-.02,2.71-.38s1.51-.92,2.04-1.69c.53-.77.85-1.68.97-2.74.12-1.08,0-2.04-.35-2.89-.35-.85-.89-1.55-1.62-2.08s-1.59-.85-2.56-.96c-.98-.11-1.88.02-2.7.38-.82.36-1.5.92-2.04,1.68-.54.76-.86,1.67-.98,2.75-.12,1.06,0,2.02.36,2.88.36.86.9,1.56,1.62,2.09.72.53,1.57.85,2.55.96Z" fill="#fff"/>
        <path d="M512.33,1001.47c-1.16-.13-2.23-.43-3.24-.9-1-.47-1.79-1.06-2.38-1.77l.76-.86c.57.66,1.28,1.2,2.13,1.62.85.42,1.79.69,2.82.8,1.71.19,3.01-.07,3.9-.78s1.44-1.92,1.62-3.63l.39-3.54.45-1.88v-1.93s.47-4.18.47-4.18l1.17.13-1.25,11.38c-.23,2.13-.92,3.64-2.07,4.53-1.14.89-2.74,1.22-4.79.99ZM512.58,996.13c-1.21-.13-2.25-.52-3.15-1.15s-1.57-1.45-2.03-2.45c-.46-1-.62-2.1-.49-3.3.13-1.22.53-2.26,1.2-3.13.66-.87,1.5-1.51,2.51-1.92,1.01-.42,2.12-.56,3.32-.42,1.16.13,2.17.49,3.03,1.09.86.6,1.51,1.39,1.95,2.37.44.98.58,2.11.44,3.4-.14,1.27-.53,2.34-1.17,3.21-.64.87-1.45,1.5-2.42,1.91-.98.4-2.04.54-3.2.41ZM512.79,995.04c1.03.11,1.95,0,2.78-.35.83-.34,1.51-.88,2.04-1.6.53-.72.85-1.58.96-2.58.11-1.01-.02-1.92-.38-2.74-.36-.81-.91-1.48-1.65-1.99-.74-.51-1.62-.82-2.64-.93-.99-.11-1.91,0-2.74.34-.84.34-1.52.86-2.05,1.58-.53.72-.85,1.58-.96,2.59-.11.99.02,1.9.38,2.72.36.82.91,1.49,1.66,2.01.74.52,1.61.83,2.6.94Z" fill="#fff"/>
        <path d="M524.22,997.89l1.4-12.75,1.22.13-1.4,12.75-1.22-.13ZM526.58,982.11c-.28-.03-.5-.15-.68-.37s-.25-.46-.22-.72c.03-.28.15-.5.37-.68s.46-.25.74-.21c.29.03.52.15.69.36.17.21.23.45.2.73-.03.28-.15.5-.36.68-.21.17-.46.25-.75.21Z" fill="#fff"/>
        <path d="M538.24,986.43c1.04.11,1.93.41,2.66.9.73.48,1.27,1.15,1.61,2.01.34.85.45,1.87.32,3.06l-.82,7.45-1.22-.13.81-7.35c.16-1.43-.08-2.56-.73-3.39-.64-.83-1.62-1.32-2.92-1.46-.99-.11-1.88,0-2.66.33-.78.33-1.4.83-1.86,1.53-.46.69-.75,1.55-.87,2.57l-.75,6.79-1.22-.13,1.4-12.75,1.17.13-.39,3.54-.13-.41c.5-.97,1.23-1.69,2.19-2.17.96-.48,2.09-.65,3.39-.5Z" fill="#fff"/>
      </g>
      <g>
        <path d="M455.02,904.26c-.41,3.69-3.73,6.36-7.42,5.95-3.69-.41-6.36-3.73-5.95-7.42.41-3.69,3.73-6.36,7.42-5.95,3.69.41,6.36,3.73,5.95,7.42Z" fill="#385580"/>
        <path d="M483.09,907.35c-.41,3.69-3.73,6.36-7.42,5.95-3.69-.41-6.36-3.73-5.95-7.42.41-3.69,3.73-6.36,7.42-5.95,3.69.41,6.36,3.73,5.95,7.42Z" fill="#385580"/>
        <path d="M511.17,910.44c-.41,3.69-3.73,6.36-7.42,5.95-3.69-.41-6.36-3.73-5.95-7.42.41-3.69,3.73-6.36,7.42-5.95,3.69.41,6.36,3.73,5.95,7.42Z" fill="#385580"/>
        <path d="M539.24,913.54c-.41,3.69-3.73,6.36-7.42,5.95-3.69-.41-6.36-3.73-5.95-7.42.41-3.69,3.73-6.36,7.42-5.95,3.69.41,6.36,3.73,5.95,7.42Z" fill="#385580"/>
        <path d="M567.31,916.63c-.41,3.69-3.73,6.36-7.42,5.95-3.69-.41-6.36-3.73-5.95-7.42.41-3.69,3.73-6.36,7.42-5.95,3.69.41,6.36,3.73,5.95,7.42Z" fill="#385580"/>
        <path d="M595.39,919.72c-.41,3.69-3.73,6.36-7.42,5.95-3.69-.41-6.36-3.73-5.95-7.42.41-3.69,3.73-6.36,7.42-5.95,3.69.41,6.36,3.73,5.95,7.42Z" fill="#385580"/>
      </g>
    </g>
    <g opacity=".2">
      <path d="M354.04,708.22l-43.29,392.86,419.96-419.96,14.98-135.95c1.72-15.64-9.56-29.73-25.21-31.45l-154.88-17.07-211.57,211.57Z" fill="#fff"/>
      <path d="M516.8,1169.48l179.93-179.93,25.3-229.58-389.18,389.18c.42.07.83.16,1.26.2l182.69,20.13Z" fill="#fff"/>
    </g>
  </g>
  <g>
    <path d="M411.99,551.78c-47.03,0-85.29-38.25-85.29-85.28,0-4.84,3.92-8.76,8.76-8.76s8.76,3.92,8.76,8.76c0,37.36,30.39,67.75,67.76,67.75s67.75-30.39,67.75-67.75-30.39-67.75-67.75-67.75h-8.76v-69.83c0-4.84,3.92-8.76,8.76-8.76s8.76,3.92,8.76,8.76v52.75c42.92,4.4,76.52,40.77,76.52,84.83,0,47.03-38.25,85.28-85.28,85.28Z" fill="url(#linear-gradient)"/>
    <path d="M324.08,496.96c-1.31,0-2.63-.29-3.88-.91-4.34-2.15-6.12-7.4-3.97-11.74l11.38-23.01c2.14-4.34,7.41-6.1,11.74-3.97,4.34,2.15,6.12,7.4,3.97,11.74l-11.38,23.01c-1.53,3.09-4.63,4.88-7.86,4.88Z" fill="url(#linear-gradient1)"/>
    <path d="M411.99,359.65c-4.84,0-8.76-3.92-8.76-8.76v-14.24c0-4.84,3.92-8.76,8.76-8.76s8.76,3.92,8.76,8.76v14.24c0,4.84-3.92,8.76-8.76,8.76Z" fill="url(#linear-gradient2)"/>
    <path d="M411.99,337.68c-20.1,0-36.44-16.35-36.44-36.44s16.35-36.44,36.44-36.44,36.44,16.35,36.44,36.44-16.35,36.44-36.44,36.44ZM411.99,282.33c-10.43,0-18.91,8.48-18.91,18.91s8.48,18.91,18.91,18.91,18.91-8.48,18.91-18.91-8.48-18.91-18.91-18.91Z" fill="url(#linear-gradient3)"/>
    <rect x="403.23" y="16.04" width="17.53" height="257.53" fill="url(#linear-gradient4)"/>
    <path d="M411.99,257.41c-4.84,0-8.76-3.92-8.76-8.76v-14.25c0-4.84,3.92-8.76,8.76-8.76s8.76,3.92,8.76,8.76v14.25c0,4.84-3.92,8.76-8.76,8.76Z" fill="url(#linear-gradient5)"/>
    <path d="M420.56,299.4c-4.84,0-8.76-3.92-8.76-8.76v-36.15c0-4.84,3.92-8.76,8.76-8.76s8.76,3.92,8.76,8.76v36.15c0,4.84-3.92,8.76-8.76,8.76Z" fill="url(#linear-gradient6)"/>
    <path d="M403.24,299.4c-4.84,0-8.76-3.92-8.76-8.76v-36.15c0-4.84,3.92-8.76,8.76-8.76s8.76,3.92,8.76,8.76v36.15c0,4.84-3.92,8.76-8.76,8.76Z" fill="url(#linear-gradient7)"/>
  </g>
  <g>
    <rect x="619.63" y="723.41" width="228.09" height="228.09" rx="17.14" ry="17.14" transform="translate(-377.28 764.07) rotate(-45)" fill="#fff"/>
    <path d="M733.67,995.06c-5.27,0-10.53-2.01-14.54-6.02l-137.04-137.04c-8.02-8.02-8.02-21.07,0-29.08l137.04-137.04c8.02-8.02,21.07-8.02,29.08,0l137.04,137.04c8.02,8.02,8.02,21.07,0,29.08l-137.04,137.04c-4.01,4.01-9.28,6.02-14.54,6.02ZM733.67,686.7c-3.66,0-7.11,1.43-9.7,4.02l-137.04,137.04c-2.59,2.59-4.02,6.04-4.02,9.7s1.43,7.11,4.02,9.7l137.04,137.04c5.18,5.18,14.21,5.18,19.39,0l137.04-137.04c2.59-2.59,4.02-6.04,4.02-9.7s-1.43-7.11-4.02-9.7l-137.04-137.04c-2.59-2.59-6.04-4.02-9.7-4.02Z" fill="#ed1c24"/>
    <g>
      <path d="M733.65,884.8c-18.54.01-25.79-64.55-26.5-105.09,0-14.46,11.72-26.18,26.18-26.18h.68c14.46,0,26.18,11.72,26.18,26.18,0,0-5.25,106.32-26.54,105.09Z" fill="#ed1c24"/>
      <circle cx="733.67" cy="904.18" r="17.2" fill="#ed1c24"/>
    </g>
  </g>
</svg>