<?xml version="1.0" encoding="UTF-8"?>
<svg version="1.1" xmlns="http://www.w3.org/2000/svg" width="512" height="512">
<path d="M0 0 C1.38638672 0.60134766 1.38638672 0.60134766 2.80078125 1.21484375 C17.74593385 8.50774 28.49396245 21.32570172 34 36.84765625 C39.32210403 53.62475764 37.61269389 70.3189898 30.4375 86.25 C24.09587489 97.99079208 13.91071871 107.12814523 2 113 C1.99641747 114.96960599 1.99641747 114.96960599 1.99276257 116.979002 C1.93528712 148.21400417 1.86247505 179.44892967 1.77101372 210.6838498 C1.75974681 214.53614043 1.74860816 218.38843142 1.73754883 222.24072266 C1.73534514 223.00757968 1.73314146 223.7744367 1.730871 224.56453182 C1.69558836 236.94869238 1.67067339 249.33285289 1.64965298 261.71704493 C1.62781868 274.44337144 1.59469658 287.16963326 1.55129844 299.89590466 C1.52491245 307.73599166 1.50712126 315.5759982 1.50065396 323.41612734 C1.49473006 329.44831862 1.47303068 335.48035282 1.44572449 341.51248932 C1.43699159 343.97212836 1.43321173 346.43179126 1.43499184 348.89144516 C1.44341621 365.91572574 0.52512895 382.30080788 -4.5 398.6875 C-4.74790283 399.49799805 -4.99580566 400.30849609 -5.2512207 401.14355469 C-12.77777494 424.4376097 -25.68220425 444.02659392 -42 462 C-42.60070312 462.67289062 -43.20140625 463.34578125 -43.8203125 464.0390625 C-68.9799783 490.71589408 -108.08725202 507.24928773 -144.41015625 508.3828125 C-160.88851514 508.7725429 -176.99077136 508.3009868 -193 504 C-194.14662109 503.69449219 -194.14662109 503.69449219 -195.31640625 503.3828125 C-220.86794182 496.28272886 -242.52632751 482.67986595 -262 465 C-262.67289063 464.39929688 -263.34578125 463.79859375 -264.0390625 463.1796875 C-289.12827355 439.51735101 -306.71595198 401.56423392 -308.16113281 367.16455078 C-308.53669897 331.6648148 -308.53669897 331.6648148 -305 318 C-304.72591309 316.86594727 -304.72591309 316.86594727 -304.44628906 315.70898438 C-299.82908764 296.98240388 -291.6964265 278.40919259 -280 263 C-279.06800781 261.75669922 -279.06800781 261.75669922 -278.1171875 260.48828125 C-267.93913573 247.36395134 -256.53654667 235.66806749 -242.875 226.1875 C-242.21798096 225.73109131 -241.56096191 225.27468262 -240.8840332 224.80444336 C-229.42439233 217.0410914 -229.42439233 217.0410914 -223.3125 216.9375 C-219.34797098 218.20914138 -217.60206082 219.78568957 -215 223 C-214.05880915 225.82357256 -213.87244203 227.54904986 -213.86628723 230.47190857 C-213.85988976 231.84513779 -213.85988976 231.84513779 -213.85336304 233.24610901 C-213.85404282 234.74934975 -213.85404282 234.74934975 -213.85473633 236.28295898 C-213.85137772 237.34011108 -213.8480191 238.39726318 -213.84455872 239.4864502 C-213.83504042 242.98967658 -213.83310522 246.49285523 -213.83203125 249.99609375 C-213.82881949 252.42603068 -213.82545549 254.85596741 -213.82194519 257.28590393 C-213.81595187 262.38274585 -213.81410552 267.47957082 -213.81469727 272.57641602 C-213.81479895 279.1147905 -213.80114129 285.65305653 -213.78392506 292.1914053 C-213.77281988 297.21076459 -213.7707776 302.23009753 -213.77130699 307.24946785 C-213.77012485 309.6604557 -213.76569 312.07144418 -213.75797462 314.48241997 C-213.7482039 317.85090666 -213.75104123 321.21915617 -213.75708008 324.58764648 C-213.75146057 325.58778275 -213.74584106 326.58791901 -213.74005127 327.61836243 C-213.74424576 328.5366684 -213.74844025 329.45497437 -213.75276184 330.40110779 C-213.75221707 331.19732764 -213.75167231 331.9935475 -213.75111103 332.81389523 C-214.02868841 335.25198336 -214.78439516 336.88551877 -216 339 C-218.78857334 339.49427094 -220.2965885 339.67021555 -223 339 C-226.29857283 336.57386479 -228.98197568 333.62973146 -231.75 330.625 C-233.24294997 329.05293644 -234.73766704 327.48254864 -236.234375 325.9140625 C-237.21229004 324.8614624 -237.21229004 324.8614624 -238.20996094 323.78759766 C-240.87404235 321.12714974 -242.3712048 320.02465864 -246.1875 319.875 C-247.5796875 319.936875 -247.5796875 319.936875 -249 320 C-258.27917663 337.10279614 -257.21502277 361.56536074 -252.26171875 379.88671875 C-247.66583101 395.38007228 -240.39681787 408.63100224 -230 421 C-229.36191406 421.83144531 -228.72382813 422.66289062 -228.06640625 423.51953125 C-213.42297538 441.09718457 -188.27563391 452.2023493 -166 455 C-135.46924542 456.69976606 -109.73898255 449.95391081 -86 430 C-85.16855469 429.36191406 -84.33710938 428.72382813 -83.48046875 428.06640625 C-65.7913077 413.33008153 -55.00505406 388.34110401 -52 366 C-51.8486136 362.54530343 -51.84526519 359.09328415 -51.84178162 355.63565063 C-51.83437465 354.07212736 -51.83437465 354.07212736 -51.82681805 352.47701776 C-51.81146412 348.98549389 -51.80308809 345.49398839 -51.79467773 342.00244141 C-51.78509756 339.49912352 -51.7750874 336.99580725 -51.76467896 334.49249268 C-51.7432406 329.10361898 -51.72479342 323.71474776 -51.70907402 318.32585526 C-51.68634136 310.53446585 -51.65820328 302.74310331 -51.62875474 294.95173673 C-51.58112042 282.31012152 -51.53784499 269.66849531 -51.49731445 257.02685547 C-51.45793834 244.74820093 -51.41650706 232.46955616 -51.37231445 220.19091797 C-51.36822804 219.05523717 -51.36822804 219.05523717 -51.36405908 217.89661331 C-51.35037926 214.0982829 -51.33665905 210.29995263 -51.32291877 206.50162244 C-51.20901936 175.00110179 -51.10226828 143.50056066 -51 112 C-51.94311035 111.69980957 -52.8862207 111.39961914 -53.85791016 111.09033203 C-58.72550118 109.40123634 -62.12496967 106.32051151 -66 103 C-66.68449219 102.42378906 -67.36898437 101.84757812 -68.07421875 101.25390625 C-79.20185414 91.08818826 -85.33993709 76.47009257 -86.375 61.578125 C-87.08259563 44.27907891 -82.44359897 28.77752345 -70.75 15.75 C-53.0180557 -3.16968688 -24.26523392 -10.91764403 0 0 Z M-40.8125 42.75 C-44.99685859 48.96676134 -46.72101899 54.00655996 -45.6328125 61.54296875 C-43.73309091 68.91904825 -39.33356432 73.12948847 -33 77 C-27.13327468 78.95557511 -20.40494296 79.00552037 -14.6875 76.5 C-9.12460018 73.26734979 -5.96223638 68.34283641 -3.5625 62.5 C-2.52934075 56.07145357 -3.51020814 50.59759952 -6.55859375 44.89453125 C-9.87970051 40.52939093 -14.86200814 37.71266395 -20 36 C-28.62677626 35.06530488 -34.58501314 36.66090174 -40.8125 42.75 Z " fill="#A6B6C4" transform="translate(392,4)"/>
<path d="M0 0 C6 2 6 2 8.0703125 2.8515625 C13.85875923 5.03048351 19.50786999 5.35242656 25.625 5.4375 C26.40504395 5.4595752 27.18508789 5.48165039 27.98876953 5.50439453 C36.70790022 5.47455253 42.96543324 3.25864169 52 1 C52 11.89 52 22.78 52 34 C42.74203694 36.31449077 34.3018419 37.10370321 24.8125 37.25 C23.70104614 37.282146 23.70104614 37.282146 22.56713867 37.31494141 C14.52033677 37.36111368 8.34658043 35.66931609 0 34 C0 22.78 0 11.56 0 0 Z " fill="#879CAF" transform="translate(341,116)"/>
</svg>
